<svg xmlns="http://www.w3.org/2000/svg" viewBox="0 0 28.621 28.621">
  <defs>
    <style>
      .cls-1 {
        fill: #fff;
      }
    </style>
  </defs>
  <g id="iconfinder_icon-ios7-bell-outline_211693" transform="translate(-64 -64)">
    <path id="Path_18" data-name="Path 18" class="cls-1" d="M87.679,76.067c0-7.275-3.913-9.749-7.573-10.3,0-.037.007-.075.007-.119A1.729,1.729,0,0,0,78.311,64a1.7,1.7,0,0,0-1.774,1.647.6.6,0,0,0,.007.119c-3.667.559-7.6,3.041-7.6,10.316,0,8.482-2.109,9.391-4.942,11.776H92.621C89.8,85.466,87.679,84.549,87.679,76.067ZM67.22,86.658a8.611,8.611,0,0,0,1.692-2.37c.894-1.886,1.3-4.412,1.3-8.214,0-3.458.932-5.993,2.765-7.543a9.091,9.091,0,0,1,10.688,0c1.826,1.543,2.758,4.062,2.758,7.52,0,6.246,1.111,8.743,3,10.606Z"/>
    <path id="Path_19" data-name="Path 19" class="cls-1" d="M208.353,408.2a3.858,3.858,0,0,0,3.853-3.2H204.5A3.852,3.852,0,0,0,208.353,408.2Z" transform="translate(-130.028 -315.584)"/>
  </g>
</svg>
