<svg xmlns="http://www.w3.org/2000/svg" viewBox="0 0 39.726 25.547">
  <defs>
    <style>
      .cls-1 {
        fill: #fff;
      }
    </style>
  </defs>
  <g id="iconfinder_icon-ios7-people-outline_211792_1_" data-name="iconfinder_icon-ios7-people-outline_211792 (1)" transform="translate(-32 -111.9)">
    <g id="Group_4" data-name="Group 4" transform="translate(39.537 111.9)">
      <path id="Path_5" data-name="Path 5" class="cls-1" d="M256,111.9Z" transform="translate(-243.674 -111.9)"/>
      <path id="Path_6" data-name="Path 6" class="cls-1" d="M137.59,131.666c-.993-.346-2.616-.452-3.325-.727a4.571,4.571,0,0,1-1.534-.709,9.257,9.257,0,0,1-.257-2.492,4.021,4.021,0,0,0,.878-1.224,13.554,13.554,0,0,0,.426-2.4.461.461,0,0,0,.133.018c.186,0,.523-.124.683-.94.2-1,.568-1.525.47-2.261-.071-.5-.284-.576-.408-.576a.314.314,0,0,0-.106.018s.505-.745.505-3.281c0-2.607-2.013-5.179-5.728-5.187-3.724.009-5.728,2.58-5.728,5.187,0,2.527.505,3.281.505,3.281a.314.314,0,0,0-.106-.018c-.133,0-.346.08-.408.576a7.292,7.292,0,0,0,.47,2.261c.16.816.5.94.683.94a.461.461,0,0,0,.133-.018,13.424,13.424,0,0,0,.426,2.4,4.021,4.021,0,0,0,.878,1.224,9.256,9.256,0,0,1-.257,2.492,4.841,4.841,0,0,1-1.534.709c-.709.275-2.332.381-3.325.727A5.962,5.962,0,0,0,117,137.447h24.652A5.952,5.952,0,0,0,137.59,131.666Zm-17.921,2.554a5.245,5.245,0,0,1,1.844-1.259,11.251,11.251,0,0,1,1.587-.328,8.836,8.836,0,0,0,1.773-.381c.089-.035.2-.08.328-.124a4,4,0,0,0,1.791-1,3.552,3.552,0,0,0,.541-2.19c.035-.621.018-1.188.018-1.215v-.612l-.435-.417a2.617,2.617,0,0,1-.523-.709,12.054,12.054,0,0,1-.31-1.818c-.106-1.02-.532-.488-.86-1.348-.177-.461-.257-1.011-.381-1.437s.568-.816.408-1.357a8.037,8.037,0,0,1-.443-2.944c0-1.818,1.357-3.751,4.31-3.76s4.31,1.942,4.31,3.76a8.036,8.036,0,0,1-.443,2.944c-.168.541.532.922.408,1.357s-.2.975-.381,1.437c-.337.86-.754.328-.86,1.348a12.26,12.26,0,0,1-.31,1.818,2.617,2.617,0,0,1-.514.709l-.426.417v.612c0,.027-.018.594.009,1.215a3.564,3.564,0,0,0,.532,2.19,4,4,0,0,0,1.791,1c.124.044.239.089.328.124a8.972,8.972,0,0,0,1.773.381,9.2,9.2,0,0,1,1.587.328,5.389,5.389,0,0,1,1.844,1.259,3.778,3.778,0,0,1,1.091,1.809H118.587A3.737,3.737,0,0,1,119.669,134.22Z" transform="translate(-117 -111.9)"/>
    </g>
    <path id="Path_7" data-name="Path 7" class="cls-1" d="M41.94,174.365a6.163,6.163,0,0,1,2.181-.479s.337-.55-.771-.745a7.509,7.509,0,0,1-1.694-.594c-.177-.213-.071-1.392-.071-1.392a6.08,6.08,0,0,0,2.962-.816c-1.374-2.057-.638-4.46-.922-6.7A3.8,3.8,0,0,0,39.449,160H39.36a3.735,3.735,0,0,0-4.044,3.645c-.284,2.243.532,4.913-.878,6.713a5.647,5.647,0,0,0,2.962.736h.018l.009-.009a4.389,4.389,0,0,1-.089,1.472,2.335,2.335,0,0,1-1.055.488,19.824,19.824,0,0,0-2.288.683,3.86,3.86,0,0,0-2,3.3h7.112A6.362,6.362,0,0,1,41.94,174.365Zm-3.662,1.241H33.942a1.527,1.527,0,0,1,.55-.576,17.676,17.676,0,0,1,2.1-.6,3.559,3.559,0,0,0,1.844-.967c.266-.31.532-.8.408-2.483l-.053-1.268-1.268-.044h-.151a6.411,6.411,0,0,1-.949-.08,11.066,11.066,0,0,0,.293-3.68,13.918,13.918,0,0,1,.035-2.128c.2-1.614.984-2.447,2.6-2.447h.062a2.484,2.484,0,0,1,2.82,2.456,13.9,13.9,0,0,1,.053,2.04,11.257,11.257,0,0,0,.364,3.786l-.1.027a7.847,7.847,0,0,1-.993.115l-1.25.044-.115,1.241c-.142,1.552.106,2.084.39,2.421l.018.018a10.565,10.565,0,0,0-1.445,1.153A4.486,4.486,0,0,0,38.278,175.607Z" transform="translate(0 -43.835)"/>
    <path id="Path_8" data-name="Path 8" class="cls-1" d="M343.845,177.026h7.112a3.89,3.89,0,0,0-2-3.308,20.364,20.364,0,0,0-2.288-.683,2.291,2.291,0,0,1-1.055-.488,4.389,4.389,0,0,1-.089-1.472l.009.009h.018c.222,0,2.181-.027,2.971-.736-1.41-1.8-.6-4.469-.887-6.713A3.733,3.733,0,0,0,343.6,160h-.089a3.811,3.811,0,0,0-4.185,3.645c-.284,2.243.452,4.647-.922,6.7a6.08,6.08,0,0,0,2.962.816s.106,1.179-.071,1.392a7.507,7.507,0,0,1-1.694.594c-1.108.2-.771.745-.771.745a6.124,6.124,0,0,1,2.181.479A6.287,6.287,0,0,1,343.845,177.026Zm-.035-2.4a10.564,10.564,0,0,0-1.445-1.153l.018-.018c.284-.346.532-.878.39-2.421l-.115-1.241-1.25-.044a7.847,7.847,0,0,1-.993-.115c-.035-.009-.071-.018-.1-.027a11.236,11.236,0,0,0,.364-3.786,13.906,13.906,0,0,1,.053-2.04,2.48,2.48,0,0,1,2.82-2.456h.062c1.614,0,2.385.834,2.6,2.447a15.159,15.159,0,0,1,.035,2.128,11.3,11.3,0,0,0,.293,3.68,6.413,6.413,0,0,1-.949.08h-.151l-1.277.035-.053,1.268c-.124,1.694.151,2.173.408,2.483a3.59,3.59,0,0,0,1.844.967,18.171,18.171,0,0,1,2.1.6,1.527,1.527,0,0,1,.55.576h-4.336A5.419,5.419,0,0,0,343.809,174.623Z" transform="translate(-279.23 -43.835)"/>
  </g>
</svg>
