<svg xmlns="http://www.w3.org/2000/svg" viewBox="0 0 22 22">
  <defs>
    <style>
      .cls-1 {
        fill: #fff;
      }
    </style>
  </defs>
  <g id="iconfinder_google_plus_313479" transform="translate(-15.5 -16.5)">
    <path id="Path_23" data-name="Path 23" class="cls-1" d="M26.5,16.5a11,11,0,1,0,11,11A11,11,0,0,0,26.5,16.5Zm7.29,18.29a10.31,10.31,0,1,1,3.02-7.29A10.242,10.242,0,0,1,33.79,34.79Z" transform="translate(0)"/>
    <path id="Path_24" data-name="Path 24" class="cls-1" d="M286.59,176.195h.471a.228.228,0,0,0,.245-.21v-1.677h1.639a.223.223,0,0,0,.229-.23h.019v-.449a.257.257,0,0,0-.249-.241h-1.639v-1.643a.256.256,0,0,0-.246-.244h-.471a.26.26,0,0,0-.25.244v1.643H284.7a.222.222,0,0,0-.206.241v.472a.193.193,0,0,0,.206.207h1.635v1.677A.232.232,0,0,0,286.59,176.195Z" transform="translate(-256.618 -147.866)"/>
    <path id="Path_25" data-name="Path 25" class="cls-1" d="M144.834,174.048a2.253,2.253,0,0,0-1.115-2.08,1.941,1.941,0,0,1-.67-.719c0-.2.019-.3.472-.653a2.189,2.189,0,0,0,.91-1.712,2.305,2.305,0,0,0-.478-1.464h.233a.224.224,0,0,0,.135-.033l.651-.466a.234.234,0,0,0-.134-.422h-2.912a2.948,2.948,0,0,0-.96.172,2.506,2.506,0,0,0-1.8,2.2,2.342,2.342,0,0,0,2.381,2.345,1.276,1.276,0,0,0-.04.311,1.167,1.167,0,0,0,.157.584h-.038a3.179,3.179,0,0,0-2.916,1.581,1.736,1.736,0,0,0-.175.741,1.39,1.39,0,0,0,.182.685,2.589,2.589,0,0,0,1.692,1.093,5.457,5.457,0,0,0,1.337.16,4.3,4.3,0,0,0,1.191-.162A2.374,2.374,0,0,0,144.834,174.048Zm-4.169-5.212a1.507,1.507,0,0,1,.278-1.19.761.761,0,0,1,.586-.272h.026a1.753,1.753,0,0,1,1.373,1.6,1.549,1.549,0,0,1-.287,1.212.759.759,0,0,1-.593.269h-.01C141.407,170.458,140.778,169.7,140.665,168.836Zm1.072,6.615a1.525,1.525,0,0,1-1.7-1.321c0-.685.87-1.279,1.861-1.279h.027a2.118,2.118,0,0,1,.625.089c.068.046.133.088.2.13.459.313.763.517.848.85a1.093,1.093,0,0,1,.029.247C143.627,175.02,142.991,175.452,141.737,175.452Z" transform="translate(-117.369 -143.096)"/>
  </g>
</svg>
