<svg xmlns="http://www.w3.org/2000/svg" viewBox="0 0 25.207 30.302">
  <defs>
    <style>
      .cls-1 {
        fill: #fff;
      }
    </style>
  </defs>
  <g id="iconfinder_95_171454" transform="translate(-182.009 51.491)">
    <path id="Path_15" data-name="Path 15" class="cls-1" d="M23.316,13.5,15.282,21.3a5.122,5.122,0,0,0,0,7.4A5.445,5.445,0,0,0,19.1,30.23h0A5.44,5.44,0,0,0,22.908,28.7L30.942,20.9a5.112,5.112,0,0,0,1.01-6.042l-1.764,1.711a2.983,2.983,0,0,1-.846,2.777l-8.235,7.99-.006,0A3.241,3.241,0,0,1,19,28.1a3.132,3.132,0,0,1-2.2-.877,2.942,2.942,0,0,1-.9-2.16,3.045,3.045,0,0,1,.792-2.013l0,0,.113-.11.046-.045.014-.013.027-.027,8.033-7.794a3.157,3.157,0,0,1,2.211-.888,3.252,3.252,0,0,1,.64.064l1.766-1.714a5.531,5.531,0,0,0-2.405-.547A5.444,5.444,0,0,0,23.316,13.5M38.91,5.16a5.12,5.12,0,0,0-1.579-3.7,5.508,5.508,0,0,0-7.625,0L21.671,9.255a5.113,5.113,0,0,0-1.013,6.038l1.689-1.639a3.049,3.049,0,0,1,.732-2.648l0,0,.111-.109.044-.044.014-.013.028-.027L31.3,3.014a3.2,3.2,0,0,1,4.424,0,2.975,2.975,0,0,1,0,4.292L27.5,15.3l-.006-.006A3.269,3.269,0,0,1,24.764,16l-1.689,1.639a5.536,5.536,0,0,0,2.409.549A5.441,5.441,0,0,0,29.3,16.654L37.331,8.86a5.123,5.123,0,0,0,1.579-3.7" transform="translate(168.306 -51.419)"/>
  </g>
</svg>
