<svg xmlns="http://www.w3.org/2000/svg" viewBox="0 0 22.519 22.519">
  <defs>
    <style>
      .cls-1 {
        fill: #980000;
      }
    </style>
  </defs>
  <g id="iconfinder_exit_1894665_1_" data-name="iconfinder_exit_1894665 (1)" transform="translate(71.52 71.519) rotate(180)">
    <g id="Group_14" data-name="Group 14" transform="translate(49.001 49)">
      <path id="Path_20" data-name="Path 20" class="cls-1" d="M257.368,71.519H246.435a.435.435,0,1,1,0-.87h10.5V49.87h-10.5a.435.435,0,1,1,0-.87h10.933a.435.435,0,0,1,.435.435V71.084A.435.435,0,0,1,257.368,71.519Z" transform="translate(-235.285 -49)"/>
      <path id="Path_21" data-name="Path 21" class="cls-1" d="M64.639,169.618a1.279,1.279,0,0,0-1.2.85.434.434,0,0,0-.074-.007H50.487l3.717-3.717a.435.435,0,1,0-.615-.615l-4.46,4.46a.435.435,0,0,0,0,.615l4.46,4.46a.435.435,0,1,0,.615-.615l-3.717-3.717H63.361a.436.436,0,0,0,.074-.007,1.278,1.278,0,1,0,1.2-1.707Zm0,1.686a.408.408,0,1,1,.408-.408A.408.408,0,0,1,64.639,171.3Z" transform="translate(-49.001 -159.637)"/>
    </g>
  </g>
</svg>
