<svg id="settings" xmlns="http://www.w3.org/2000/svg" viewBox="0 0 48 48">
  <defs>
    <style>
      .cls-1 {
        fill: #fff;
      }
    </style>
  </defs>
  <g id="Group_25" data-name="Group 25">
    <g id="Group_23" data-name="Group 23">
      <path id="Path_30" data-name="Path 30" class="cls-1" d="M26,48H22a3,3,0,0,1-3-3V41.276a17.852,17.852,0,0,1-3.681-1.527l-2.634,2.635a3.073,3.073,0,0,1-4.243,0L5.613,39.556a3,3,0,0,1,0-4.242l2.635-2.636A17.738,17.738,0,0,1,6.723,29H3a3,3,0,0,1-3-3V22a3,3,0,0,1,3-3H6.724A17.855,17.855,0,0,1,8.25,15.32L5.616,12.685a3,3,0,0,1,0-4.242L8.444,5.614a3.073,3.073,0,0,1,4.243,0l2.635,2.635A17.843,17.843,0,0,1,19,6.724V3a3,3,0,0,1,3-3h4a3,3,0,0,1,3,3V6.724a17.862,17.862,0,0,1,3.678,1.525l2.635-2.635a3.073,3.073,0,0,1,4.243,0l2.829,2.828a3,3,0,0,1,0,4.242l-2.634,2.635A17.763,17.763,0,0,1,41.277,19H45a3,3,0,0,1,3,3v4a3,3,0,0,1-3,3H41.276a17.85,17.85,0,0,1-1.526,3.68l2.634,2.635a3,3,0,0,1,0,4.242l-2.828,2.829a3.073,3.073,0,0,1-4.243,0L32.68,39.75A17.855,17.855,0,0,1,29,41.276V45A3,3,0,0,1,26,48ZM15.157,37.5a1,1,0,0,1,.521.146,15.877,15.877,0,0,0,4.557,1.891,1,1,0,0,1,.765.972V45a1,1,0,0,0,1,1h4a1,1,0,0,0,1-1V40.507a1,1,0,0,1,.765-.972,15.876,15.876,0,0,0,4.556-1.89,1,1,0,0,1,1.229.146l3.178,3.179a1.031,1.031,0,0,0,1.415,0l2.828-2.829a1,1,0,0,0,0-1.414l-3.179-3.179a1,1,0,0,1-.146-1.229,15.86,15.86,0,0,0,1.889-4.556A1,1,0,0,1,40.507,27H45a1,1,0,0,0,.708-.293A.985.985,0,0,0,46,26V22a1,1,0,0,0-1-1H40.507a1,1,0,0,1-.972-.766,15.85,15.85,0,0,0-1.889-4.556,1,1,0,0,1,.146-1.229l3.179-3.179a1,1,0,0,0,0-1.414L38.142,7.027a1.027,1.027,0,0,0-1.415,0l-3.179,3.179a1,1,0,0,1-1.229.146,15.864,15.864,0,0,0-4.554-1.889A1,1,0,0,1,27,7.493V3a1,1,0,0,0-1-1H22a1,1,0,0,0-1,1V7.493a1,1,0,0,1-.765.972,15.874,15.874,0,0,0-4.556,1.889,1,1,0,0,1-1.228-.146L11.272,7.029a1.027,1.027,0,0,0-1.415,0L7.03,9.857a1,1,0,0,0,0,1.414l3.179,3.179a1,1,0,0,1,.146,1.229,15.856,15.856,0,0,0-1.889,4.555A1,1,0,0,1,7.494,21H3a1,1,0,0,0-1,1v4a1,1,0,0,0,1,1H7.493a1,1,0,0,1,.972.766,15.866,15.866,0,0,0,1.889,4.555,1,1,0,0,1-.146,1.229l-3.179,3.18a1,1,0,0,0,0,1.414l2.829,2.828a1.027,1.027,0,0,0,1.415,0l3.178-3.179A.99.99,0,0,1,15.157,37.5Z"/>
    </g>
    <g id="Group_24" data-name="Group 24">
      <path id="Path_31" data-name="Path 31" class="cls-1" d="M24,34A10,10,0,1,1,34,24,10.011,10.011,0,0,1,24,34Zm0-18a8,8,0,1,0,8,8A8.009,8.009,0,0,0,24,16Z"/>
    </g>
  </g>
</svg>
